<svg id="Layer_2" data-name="Layer 2" xmlns="http://www.w3.org/2000/svg" xmlns:xlink="http://www.w3.org/1999/xlink" viewBox="0 0 334 509"><defs><style>.cls-1{fill:#fff9ee;}.cls-2{fill:#c6c5c4;}.cls-12,.cls-2{opacity:0.17;}.cls-3{fill:#892332;}.cls-4{fill:#7d323b;}.cls-5{fill:#e9c261;}.cls-6{fill:#f5e2ac;}.cls-7{fill:#f6bd61;}.cls-8{fill:#f5e0a9;}.cls-9{fill:#503027;}.cls-10{fill:#d79328;}.cls-11{fill:#a2a2a3;}.cls-12,.cls-30{fill:#c6c5c5;}.cls-13{fill:url(#linear-gradient);}.cls-14{fill:#eeead4;}.cls-15{fill:#f5f2e5;}.cls-16{fill:#f0d3b3;}.cls-17{fill:url(#linear-gradient-2);}.cls-18{fill:url(#linear-gradient-3);}.cls-19,.cls-25,.cls-28{fill:none;}.cls-19,.cls-21{stroke:#231f20;}.cls-19,.cls-21,.cls-25,.cls-28{stroke-miterlimit:10;stroke-width:1.06px;}.cls-20{fill:#e6ae7a;}.cls-21{fill:#f9f6f6;}.cls-22{fill:#fff;}.cls-23{fill:#ca5a5a;}.cls-24{fill:#fdeeec;}.cls-25{stroke:#b9b0ad;}.cls-26{fill:url(#linear-gradient-4);}.cls-27{fill:#f8a03a;}.cls-28{stroke:#f8a03a;}.cls-29{fill:#f37522;}.cls-31{fill:url(#linear-gradient-5);}.cls-32{fill:#c4c7c8;}</style><linearGradient id="linear-gradient" x1="239.61" y1="331.26" x2="266.58" y2="331.26" gradientTransform="matrix(0.93, -0.37, 0.37, 0.93, -74.34, 89.64)" gradientUnits="userSpaceOnUse"><stop offset="0.14" stop-color="#ffcd40"/><stop offset="0.64" stop-color="#f9ae42"/><stop offset="1" stop-color="#f79839"/></linearGradient><linearGradient id="linear-gradient-2" x1="217.62" y1="268.42" x2="267.06" y2="268.42" xlink:href="#linear-gradient"/><linearGradient id="linear-gradient-3" x1="1.13" y1="274.7" x2="57.28" y2="274.7" xlink:href="#linear-gradient"/><linearGradient id="linear-gradient-4" x1="141.67" y1="248.69" x2="141.67" y2="182.28" xlink:href="#linear-gradient"/><linearGradient id="linear-gradient-5" x1="-9.59" y1="332.33" x2="8.96" y2="332.33" xlink:href="#linear-gradient"/></defs><title>mongkey-Home</title><g id="ลิง"><path class="cls-1" d="M158.32,493.21c0-.19,0-.37,0-.55-2.4-4.18-5.83-29-5.83-29l-27.73,8.45-.82,18.5c-7.72,2.48-16.23,17-16.23,17,22.7,5.22,46.32-10.7,50.6-13.77C158.33,493.59,158.33,493.4,158.32,493.21Z"/><path class="cls-1" d="M308.87,433.74c-6-7.9-22.42-6.72-22.42-6.72l-9.57-19.76c-2.84,2.82-24.48,15.55-24.48,15.55l10.49,30.25,1.13-.21a5.38,5.38,0,0,1,.78-.14c2.68-.5,5.19-1,7.55-1.51l.28-.07.49-.1.51-.11.15,0a30.58,30.58,0,0,1,3.53-.78C314,441.57,308.87,433.74,308.87,433.74Z"/><path class="cls-2" d="M277.08,441.32c-8.33,1.3-16.84-22.42-16.84-22.42l-7.84,3.9,10.49,30.25.31,0,.13,0h0a5.34,5.34,0,0,1,2.2-.39,5.42,5.42,0,0,1,1.85-.35l.33,0h0l.14-.06a5.44,5.44,0,0,1,2-.4c.11,0,.22-.07.34-.09q-.57.14.43-.13t1.94-.46q1-.21.34,0l.81-.24a27.91,27.91,0,0,1,5.07-1h.06a28.54,28.54,0,0,1,5.9-1.35c6.59-2.15,12-4.23,12-4.23C297.59,442,277.08,441.32,277.08,441.32Z"/><path class="cls-2" d="M133.2,506.37c8.59-3.48,18.5-6.83,25.71-12.78a6,6,0,0,1-.67-1,32.64,32.64,0,0,1-3.35-12.11c-.36-4-1.62-8.05-1.54-12.08,0-.14,0-.28,0-.42l-1.14-5.25-9.85.85s5.61,27.36-3.19,30.95c0,0-19.42,12.48-17.3,14.25,0,0,4.78-.86,11-2.24Z"/><path class="cls-1" d="M338,317.12c-11.36,34.93-29.16,35.24-29.16,35.24-8.3,19.67-40.11-1.5-40.11-1.5l9.52,18.86,1.79,1.16c9.3,6.11,37.67,3.92,37.67,3.92,32.2-9,39.33-47.14,39.33-47.14C356.55,306.28,338,317.12,338,317.12Z"/><path class="cls-3" d="M103.28,405.92s110.87-9.42,157.23-67.22c0,0,32.93,46.42,25.63,56.33,0,0-5.55,17.21-42,31.24L163.38,458.2s-54.7,31.31-60.87.68c0,0-7.68-40.71.77-53h0"/><path class="cls-4" d="M99.74,437.22S175.4,471.07,286.15,395c0,0-4.15,16.42-42,31.24L137.53,469.74s-34.48,14.18-36.2-18.17Z"/><polygon class="cls-5" points="119.63 404.99 119.74 458.15 148.18 454.13 147.45 399.63 119.63 404.99"/><polygon class="cls-6" points="123.83 404.18 124.32 445.7 141.41 442.36 143.93 400.31 123.83 404.18"/><path class="cls-5" d="M252.87,406a5.25,5.25,0,0,1,.91.79c4.31-4.18,20.61-14.37,20.61-14.37C273,388.81,246.77,353,246.77,353L228.5,366l-4.8,3.44,29.19,36.41Z"/><polygon class="cls-6" points="241.28 356.9 263.85 384.46 250.56 396.93 228.5 366.05 241.28 356.9"/><polygon class="cls-7" points="148.78 399.32 169.81 474.47 249.85 444.53 225.45 368.38 148.78 399.32"/><polygon class="cls-8" points="156.86 397.31 179.01 453.34 235.33 432.31 218.95 371.36 156.86 397.31"/><path class="cls-9" d="M99.26,393.12S220.59,372.41,255,324.75l5.85,14.81s-51.7,60.64-157.23,67.22h0l-4.36-13.67"/><path class="cls-10" d="M157.51,378.91l50.29-19.15s7.73,31.78-11.24,39C196.57,398.75,176.71,411.57,157.51,378.91Z"/><path class="cls-11" d="M257.68,287.45s52.62,6.56,64.16,14.12c0,0,6.2,48.86-21.2,62.11,0,0-37,2.66-32.74-29.81,0,0,7.83-18.06,21.23-15.52L301.62,324s-31.73-17.53-47.62-14.1Z"/><path class="cls-1" d="M254.24,286.93s54.45,6.79,66.39,14.61c0,0,6.42,50.56-21.93,64.27,0,0-38.29,2.75-33.88-30.85,0,0,8.1-18.69,22-16.06l12.92,5.81s-32.84-18.14-49.28-14.59Z"/><path class="cls-12" d="M254,290.87s71.33,17.25,55.34,37.36c0,0-18.23,33.47-44.86,12,0,0-4.89,28,36.18,23.49,0,0,26.32-10.32,21.2-62.11,0,0-23.82-11.51-67.61-14.63Z"/><path class="cls-13" d="M271.49,312.65s-3.21-15.2,8.06-21.94l13.23,2.45s-11.38,15.48-6.84,25.48Z"/><path class="cls-14" d="M47.72,78.87,58,3.35s24.76,49.5,56.54,60.5L105.39,104,66.6,119.29Z"/><path class="cls-15" d="M37.84,247s129.57-1.05,176.85-73.72c0,0,7-76.5-56.95-103.67,0,0-39.69-20-57.71-43.32l-3,22.46-5.9,44.9L40.38,40s-6.13,39.67-23.77,58.8C16.61,98.77-32.44,161.49,37.84,247Z"/><path class="cls-16" d="M.12,147.48S3.36,136.23,9,144c0,0,5.49,17.49,9.73,16.67,0,0,4.69-3.28,7.37-20.3,0,0,5.53-4.75,5.6,4.06,0,0,2.23,40.74,22.32,54.17,0,0-6.14-50,6.78-68.53,0,0,1.39-2.26,2.26,0,0,0,4.48,12.77,9.75,12.39,0,0,7.14,0,7.52-20.64,0,0,8.83-5.77,25.12,9.45s5.6-21.88,5.6-21.88,20.39,10.47,22.55,22.44c0,0,4.43-.33,4.36-6.28,0,0,2.55-10.13-.79-23.63,0,0,5.17-11.45,25.66,20.93,0,0,9.74,13.82,8.28,21,0,0,14.18-1.62-15.39-54.06,0,0,1.1-4.43,4.83-2.2,0,0,8.08,9.63,12.22,8.57,0,0,4.53-.08-.36-8.12,0,0,10.24-3,13.84.93,0,0-16.87-15.88-39.75-25.41,0,0-43.68-29-47.53-38l-2.34,25.9S59.74,9.89,58.59,1.22s-5.75,52-5.75,52L40.29,40s-6.68,36.37-23.77,58.8C16.52,98.81,1.39,116.77.12,147.48Z"/><path class="cls-17" d="M224.16,217.79s18.32-31.85,26-33.74c0,0,2.63,8.6,1.69,11,0,0-6.88,64.88-2.82,73.22,0,0,6.74,4,8.52,3.39l-8.26,44.6-25.12-98.53"/><path class="cls-18" d="M56.61,283.46s-45.42-6.68-54.22-2.82c0,0,54.22,36.44,50.93,45.55l-1.55,12.17s35.64,43.09,38.41,54.93L99,390.57s-17-84.45-42.34-107.11"/><path class="cls-1" d="M225.81,215.73c-46.46,59.83-160.74,69.59-168.45,70.19a4,4,0,0,1,.48,1,5.36,5.36,0,0,1,.59,1.09v0c27,37.32,40.51,104.26,40.51,104.26,126-12.94,157-66.18,157-66.18C246.55,311.13,225.81,215.73,225.81,215.73Z"/><path class="cls-19" d="M96.49,303.2s3.23-19.31,23.61-18.92c0,0,32.09,13.43,43,10"/><path class="cls-19" d="M186.65,275.79s8.09-29.82,21.75-30.51c0,0,12.66-.48,23.3,12"/><path class="cls-20" d="M234.11,250.88s-29.57-16.2-32.55-14c0,0-16.71,18.17-15,32.81,0,0,11.53,1,8.72,5.74,0,0-19.89,26.83-53.76,21.25,0,0,5.72-18.17-14-22,0,0-39.65,6.14-54.81,37.7L56.09,283.9S164,281,225.28,213.41Z"/><path class="cls-20" d="M172.17,289.45c1.95-3,4.29-6.11,4.67-9.74s-.86-7.62-1.8-11c-1.2-4.36-1.86-5.6-6.31-3.88-4.19,1.62-7.84,4.41-12,6.18-8.85,3.81-19,2.8-28.37,3.94a54.81,54.81,0,0,0-6.59,1.25c7.22,1.94,15.5,5.35,19.87,11.24,0,0-7.75,8.59-2.44,10.16a61.52,61.52,0,0,0,32.12-4.3A5.66,5.66,0,0,1,172.17,289.45Z"/><ellipse class="cls-21" cx="126.89" cy="321.48" rx="16.33" ry="30.76" transform="translate(-109.3 69.16) rotate(-21.57)"/><ellipse cx="131.94" cy="319.49" rx="10.9" ry="20.52" transform="translate(-108.22 70.88) rotate(-21.57)"/><ellipse class="cls-22" cx="126.11" cy="321.79" rx="4.63" ry="8.72" transform="translate(-109.47 68.9) rotate(-21.57)"/><ellipse class="cls-21" cx="218.65" cy="284.22" rx="14.69" ry="29.84" transform="translate(-89.18 100.29) rotate(-21.57)"/><ellipse cx="215.47" cy="285.48" rx="9.8" ry="23.81" transform="translate(-89.86 99.21) rotate(-21.57)"/><ellipse class="cls-22" cx="218.84" cy="282.3" rx="4.3" ry="9.69" transform="translate(-88.46 100.22) rotate(-21.57)"/><path class="cls-23" d="M217.57,326.61a7.21,7.21,0,0,1-.9-.49,4.61,4.61,0,0,1-2.28-.69,21.18,21.18,0,0,1-5.49,5.92,5.39,5.39,0,0,1-1.78.84c-1.89,1.56-3.9,2.85-5.79,4.48a4.88,4.88,0,0,1-1.88,1c-15.92,11.69-36.62,14.64-36.62,14.64l-2.22,7.47v0a4.76,4.76,0,0,1,1.13.46,4.86,4.86,0,0,1,2.54-.05c.79.18,1.6.32,2.42.43a4.91,4.91,0,0,1,3.6,0,71.39,71.39,0,0,1,7.45-.57,65.93,65.93,0,0,0,9.63-1.69,52.31,52.31,0,0,0,19.39-9.09,5.54,5.54,0,0,1,1.36-.7,4.81,4.81,0,0,1,1.54-1.47,54.55,54.55,0,0,0,9.65-19.89l-.12,0C218.67,327,218.1,326.85,217.57,326.61Z"/><path class="cls-19" d="M162.6,352.38s38.31-7.68,51.47-26.66l5,2.2s-3.26,36.77-59,31.79Z"/><path class="cls-24" d="M167,351.66l6.95,6.3,2.19-4.7s20.68-4.72,34.5-18.09l3,2s-.14-7.88-1.7-8.53C211.87,328.6,204.32,342.8,167,351.66Z"/><path class="cls-19" d="M229.08,319.91c-3.35,10.78-15,5.81-15,5.81-11.83,17.23-50.93,26.39-50.93,26.39s-4,19.74-20,10.39"/><path class="cls-25" d="M252.21,317.7s-4.6,23-14.38,1c0,0-.31-8.55,6.38-2.52,0,0,.58,3.5-1.8,4.15"/><path class="cls-25" d="M113,380.89s18.57,8.47,22.12-7.71c0,0-5.07-21-15.89-13.91,0,0-5,14.81,6.76,15.24,0,0,6-2.9-.57-8.46"/><path class="cls-26" d="M213.46,172.15c-40.25,71.22-174,74-174,74L36.1,242a20.65,20.65,0,0,0-2,3,13.64,13.64,0,0,0-.31,1.65c0,.1,0,.43,0,.51,0,.61,0,1.22,0,1.83L44.83,280c0,.06.07.11.09.17.18.45.36.9.56,1.34l.29.55.37.49.07.09.18.14c.15.12.67.41.69.44.25.11.51.22.77.31.7.25,1.41.45,2.12.68l.33.13c144-1.16,181.27-77.17,181.27-77.17l-12.11-34C216.74,169.13,213.46,172.15,213.46,172.15Z"/><path class="cls-27" d="M138.07,201.58l45,28.38-1.74,23.77a190.33,190.33,0,0,1-45.43,19.2L119,256Z"/><path class="cls-28" d="M62.47,244.54c-6,12.33,6.59,26.76,9.06,39"/><path class="cls-28" d="M98.38,239S93,246.25,96.2,254.86l9.81,24.8"/><path class="cls-28" d="M190.23,199.32a25.43,25.43,0,0,0,3.94,2c7.25,9.68,9,22.68,14.69,33.05"/><path class="cls-29" d="M144.39,215.91l-1.1,21.72A12.15,12.15,0,0,0,147.38,248l13.51,9.67.88-15.55s.75-5.81-4.61-11.67S144.39,215.91,144.39,215.91Z"/><path class="cls-28" d="M207.83,180.8s4.5-.16,5.41,2.14l12.4,32.35"/><rect class="cls-30" x="77.11" y="349.81" width="39.73" height="57.43" rx="16.67" ry="16.67" transform="translate(-132.37 62.16) rotate(-21.57)"/><path class="cls-1" d="M63.67,353.8S35,401,36.49,427.83L39.57,439s22.09,14,64.06-32.18Z"/><rect class="cls-1" x="75.24" y="350.55" width="39.73" height="57.43" rx="16.67" ry="16.67" transform="translate(-132.78 61.53) rotate(-21.57)"/><ellipse class="cls-30" cx="76.58" cy="369.5" rx="9.81" ry="13.44" transform="translate(-130.48 54.03) rotate(-21.57)"/><ellipse class="cls-1" cx="75.95" cy="369.15" rx="9.81" ry="13.44" transform="translate(-130.4 53.78) rotate(-21.57)"/><path class="cls-31" d="M46.74,387.05l7.67,3.87s-6.87,12.32-6.36,17.41h0l-8-3.21S43.4,393.8,46.74,387.05Z"/><path class="cls-32" d="M66.06,371.11s-18.79,28.68-18,37.54c0,0,13.14-30.69,19.3-34.5Z"/><path class="cls-2" d="M68.73,376.35s12.83,3.32,17.41-6.88c0,0,.92,10.38-5.25,12.18A10.57,10.57,0,0,1,68.73,376.35Z"/><path class="cls-2" d="M78.29,390.79s27.84,16.73,36.69-15.27c0,0,13.36,22.24-9.32,30.46C105.66,406,85.25,416.55,78.29,390.79Z"/></g></svg>